<?xml version="1.0" encoding="UTF-8"?>
<svg id="Layer_1" xmlns="http://www.w3.org/2000/svg" version="1.1" viewBox="0 0 2500 2500">
  
  <defs>
    
  </defs>
  <path class="st0" d="M1352.55,1176.17c-203.17,0-350.22,153.8-350.22,352.49s147.05,352.48,350.22,352.48,350.22-153.79,350.22-352.48-147.05-352.49-350.22-352.49Z"></path>
  <path class="st0" d="M1250,0C559.65,0,0,559.64,0,1249.99s559.63,1250,1249.99,1250,1250-559.65,1250-1250h.01C2500,559.65,1940.35,0,1250,0ZM1352.55,2089.92c-157.82,0-296.25-57.1-397.51-151.4v104.57c0,13.44-10.91,24.35-24.34,24.35h-173.52c-13.44,0-24.34-10.91-24.34-24.35V468.84c-.01-4.6,2.44-8.85,6.43-11.15l179.26-103.5c16.23-9.36,36.51,2.35,36.51,21.08v743.52c101.26-94.31,239.7-151.4,397.51-151.4h0c327.79,0,572.49,245.83,572.49,561.26s-244.71,561.26-572.49,561.26ZM1912.48,973.46c-76.17,0-137.93-61.76-137.93-137.93s61.76-137.93,137.93-137.93,137.93,61.76,137.93,137.93-61.76,137.93-137.93,137.93Z"></path>
</svg>