<?xml version="1.0" encoding="UTF-8"?>
<svg id="Layer_1" xmlns="http://www.w3.org/2000/svg" version="1.1" viewBox="0 0 800 792">
  
  <defs>
    
  </defs>
  <g id="Layer_11" data-name="Layer_1">
    <path class="st0" d="M427.5,30.8c4,17-6.5,34.1-23.5,38.1s-34.1-6.5-38.1-23.5,6.5-34.1,23.5-38.1,34.1,6.5,38.1,23.5ZM427.4,746.5c4,17-6.5,34.1-23.5,38.1s-34.1-6.5-38.1-23.5,6.5-34.1,23.5-38.1,34.1,6.5,38.1,23.5ZM672.4,165.7c12.4-12.4,12.4-32.4,0-44.8-12.4-12.4-32.4-12.4-44.8,0-12.4,12.4-12.4,32.4,0,44.8s32.4,12.4,44.8,0ZM680.8,641.5c4,17-6.5,34.1-23.5,38.1s-34.1-6.5-38.1-23.5,6.5-34.1,23.5-38.1,34.1,6.5,38.1,23.5ZM165.8,671.1c12.4-12.4,12.4-32.4,0-44.8-12.4-12.4-32.4-12.4-44.8,0s-12.4,32.4,0,44.8c12.4,12.4,32.4,12.4,44.8,0ZM68.9,389.2c4,17-6.5,34.1-23.5,38.1s-34.1-6.5-38.1-23.5,6.5-34.1,23.5-38.1,34.1,6.5,38.1,23.5ZM777.6,418.9c12.4-12.4,12.4-32.4,0-44.8s-32.4-12.4-44.8,0c-12.4,12.4-12.4,32.4,0,44.8s32.4,12.4,44.8,0ZM165.8,120.1c12.4,12.4,12.4,32.4,0,44.8s-32.4,12.4-44.8,0-12.4-32.4,0-44.8c12.4-12.4,32.4-12.4,44.8,0ZM396.6,111.6c-4.2,0-8.3.8-12.1,2.4-3.8,1.6-7.3,3.9-10.3,6.9-2.9,2.9-5.3,6.4-6.9,10.3-1.6,3.8-2.4,8-2.4,12.1v126.5c-.1,4.2.6,8.4,2.2,12.4s3.9,7.5,6.8,10.6c3,3,6.5,5.4,10.4,7.1,3.9,1.6,8.1,2.5,12.3,2.5s8.4-.8,12.3-2.5c3.9-1.6,7.4-4.1,10.4-7.1s5.3-6.6,6.8-10.6c1.5-3.9,2.3-8.1,2.2-12.4v-126.9c0-8.3-3.5-16.3-9.4-22.2-5.9-5.9-13.9-9.2-22.3-9.2h0ZM384.5,493.8c3.8-1.6,8-2.4,12.1-2.4s8.3.8,12.1,2.4c3.8,1.6,7.3,3.9,10.3,6.9s5.3,6.4,6.9,10.3c1.6,3.8,2.4,8,2.4,12.1v127c.1,4.2-.6,8.4-2.2,12.4-1.5,3.9-3.9,7.5-6.8,10.6-3,3-6.5,5.4-10.4,7.1-3.9,1.6-8.1,2.5-12.3,2.5s-8.4-.8-12.3-2.5c-3.9-1.6-7.4-4.1-10.4-7.1s-5.3-6.6-6.8-10.6-2.3-8.1-2.2-12.4v-127c0-4.2.8-8.3,2.4-12.1,1.6-3.8,3.9-7.3,6.9-10.3s6.4-5.3,10.3-6.9ZM333.4,364.8h-190c-4.2-.1-8.4.6-12.4,2.2-3.9,1.5-7.5,3.8-10.6,6.8-3,3-5.4,6.5-7.1,10.4-1.6,3.9-2.5,8.1-2.5,12.3s.8,8.4,2.5,12.3c1.6,3.9,4.1,7.4,7.1,10.4,3,2.9,6.6,5.3,10.6,6.8,3.9,1.5,8.2,2.3,12.4,2.2h190c8.2-.2,16.1-3.7,21.8-9.6,5.8-5.9,9-13.8,9-22.1s-3.2-16.2-9-22.1-13.6-9.3-21.8-9.6h0ZM662.4,425.9c-3.9,1.5-8.2,2.3-12.4,2.2h-190c-4.2.1-8.4-.6-12.4-2.2-3.9-1.5-7.5-3.9-10.6-6.8-3-3-5.4-6.5-7.1-10.4-1.6-3.9-2.5-8.1-2.5-12.3s.8-8.4,2.5-12.3c1.6-3.9,4.1-7.4,7.1-10.4,3-2.9,6.6-5.3,10.6-6.8,3.9-1.5,8.2-2.3,12.4-2.2h190c4.2-.1,8.4.6,12.4,2.2,3.9,1.5,7.5,3.8,10.6,6.8,3,3,5.4,6.5,7.1,10.4,1.6,3.9,2.5,8.1,2.5,12.3s-.8,8.4-2.5,12.3c-1.6,3.9-4.1,7.4-7.1,10.4-3,2.9-6.6,5.3-10.6,6.8ZM523.3,301.5c4.2,0,8.3-.8,12.1-2.4s7.3-3.9,10.3-6.9c2.9-2.9,5.3-6.4,6.9-10.3,1.6-3.9,2.4-8,2.4-12.1V60.7c.2-4.3-.5-8.5-2-12.5s-3.8-7.6-6.8-10.7-6.5-5.5-10.4-7.2-8.2-2.5-12.4-2.5-8.5.9-12.4,2.5c-3.9,1.7-7.5,4.1-10.4,7.2-3,3.1-5.3,6.7-6.8,10.7s-2.2,8.2-2,12.5v209.2c0,4.2.8,8.3,2.4,12.1,1.6,3.8,3.9,7.3,6.9,10.3s6.4,5.3,10.3,6.9c3.8,1.6,8,2.4,12.1,2.4h-.2ZM257,493.8c3.8-1.6,8-2.4,12.1-2.4s8.3.8,12.1,2.4c3.8,1.6,7.3,3.9,10.3,6.9s5.3,6.4,6.9,10.3c1.6,3.8,2.4,8,2.4,12.1v209.1c.2,4.3-.5,8.5-2,12.5s-3.8,7.6-6.8,10.7c-3,3.1-6.5,5.5-10.4,7.2s-8.2,2.5-12.4,2.5-8.5-.9-12.4-2.5c-3.9-1.7-7.5-4.1-10.4-7.2-3-3.1-5.3-6.7-6.8-10.7s-2.2-8.2-2-12.5v-209.1c0-4.2.8-8.3,2.4-12.1,1.6-3.8,3.9-7.3,6.9-10.3s6.4-5.3,10.3-6.9h-.2ZM60.9,300.8h209.1c8.2-.3,15.9-3.8,21.6-9.7,5.7-5.9,8.9-13.8,8.9-22s-3.2-16.1-8.9-22c-5.7-5.9-13.4-9.4-21.6-9.7H60.9c-4.3-.2-8.5.5-12.5,2s-7.6,3.8-10.7,6.8c-3.1,3-5.5,6.5-7.2,10.4s-2.5,8.1-2.5,12.4.9,8.5,2.5,12.4c1.7,3.9,4.1,7.5,7.2,10.4,3.1,3,6.7,5.3,10.7,6.8s8.2,2.2,12.5,2v.2ZM523.3,491.4h209.3c4.2-.1,8.4.6,12.4,2.2,3.9,1.5,7.5,3.8,10.6,6.8,3,2.9,5.4,6.5,7.1,10.4,1.6,3.9,2.5,8.1,2.5,12.3s-.8,8.4-2.5,12.3c-1.6,3.9-4.1,7.4-7.1,10.4-3,2.9-6.6,5.3-10.6,6.8-3.9,1.5-8.2,2.3-12.4,2.2h-209.3c-4.2,0-8.4-.6-12.4-2.2-3.9-1.5-7.5-3.9-10.6-6.8-3-2.9-5.4-6.5-7.1-10.4-1.6-3.9-2.5-8.1-2.5-12.3s.8-8.4,2.5-12.3c1.6-3.9,4.1-7.4,7.1-10.4,3-2.9,6.6-5.3,10.6-6.8,3.9-1.5,8.2-2.3,12.4-2.2ZM270,175c4.2,0,8.3-.8,12.1-2.4,3.8-1.6,7.3-3.9,10.3-6.9s5.3-6.4,6.9-10.3c1.6-3.8,2.4-8,2.4-12.1V60.7c.2-4.3-.5-8.5-2.1-12.5-1.5-4-3.8-7.6-6.8-10.7-3-3.1-6.5-5.5-10.4-7.2s-8.2-2.5-12.4-2.5-8.5.9-12.4,2.5c-3.9,1.7-7.5,4.1-10.4,7.2-3,3.1-5.3,6.7-6.8,10.7s-2.2,8.2-2,12.5v82.6c0,4.2.8,8.3,2.4,12.1,1.6,3.8,3.9,7.3,6.9,10.3s6.4,5.3,10.3,6.9c3.8,1.6,8,2.4,12.1,2.4h-.1ZM165,545c-5.7,5.9-13.4,9.4-21.6,9.7H60.9c-4.3.2-8.5-.5-12.5-2s-7.6-3.8-10.7-6.8c-3.1-3-5.5-6.5-7.2-10.4s-2.5-8.1-2.5-12.4.9-8.5,2.5-12.4c1.7-3.9,4.1-7.5,7.2-10.4,3.1-3,6.7-5.3,10.7-6.8s8.2-2.2,12.5-2h82.4c8.2.3,15.9,3.8,21.6,9.7,5.7,5.9,8.9,13.8,8.9,22s-3.2,16.1-8.9,22v-.2ZM649.9,301.5h82.6c8.2-.2,16.1-3.7,21.8-9.6,5.8-5.9,9-13.8,9-22.1s-3.2-16.2-9-22.1c-5.8-5.9-13.6-9.3-21.8-9.6h-82.6c-4.2-.1-8.4.6-12.4,2.2-3.9,1.5-7.5,3.8-10.6,6.8-3,2.9-5.4,6.5-7.1,10.4-1.6,3.9-2.5,8.1-2.5,12.3s.8,8.4,2.5,12.3,4.1,7.4,7.1,10.4c3,2.9,6.6,5.3,10.6,6.8,3.9,1.5,8.2,2.3,12.4,2.2h0ZM500.9,626.4c5.9-5.9,14-9.3,22.4-9.3s16.5,3.3,22.4,9.3c5.9,5.9,9.3,14,9.3,22.4v82.7c-.3,8.2-3.8,15.9-9.7,21.6-5.9,5.7-13.8,8.9-22,8.9s-16.1-3.2-22-8.9-9.4-13.4-9.7-21.6v-82.7c0-8.4,3.4-16.4,9.3-22.4h0Z"></path>
  </g>
</svg>