<?xml version="1.0" encoding="UTF-8"?>
<svg id="Layer_1" xmlns="http://www.w3.org/2000/svg" xmlns:xlink="http://www.w3.org/1999/xlink" version="1.1" viewBox="0 0 24 24">
  
  <defs>
    
    <linearGradient id="linear-gradient" x1="4.73" y1="10.31" x2="17.49" y2="23.07" gradientTransform="translate(0 26) scale(1 -1)" gradientUnits="userSpaceOnUse">
      <stop offset=".03" stop-color="#ff86b4"></stop>
      <stop offset=".04" stop-color="#fa84b7"></stop>
      <stop offset=".16" stop-color="#c572dd"></stop>
      <stop offset=".25" stop-color="#a468f5"></stop>
      <stop offset=".31" stop-color="#9864ff"></stop>
      <stop offset=".38" stop-color="#8470ff"></stop>
      <stop offset=".68" stop-color="#3d9cff"></stop>
      <stop offset=".89" stop-color="#11b8ff"></stop>
      <stop offset="1" stop-color="#00c3ff"></stop>
    </linearGradient>
    <linearGradient id="linear-gradient1" x1="13.43" y1="18.99" x2="13.43" y2="23.18" gradientTransform="translate(0 26) scale(1 -1)" gradientUnits="userSpaceOnUse">
      <stop offset=".07" stop-color="#fff"></stop>
      <stop offset=".89" stop-color="#00baff"></stop>
    </linearGradient>
    <linearGradient id="linear-gradient2" x1="18.17" y1="19.25" x2="25.23" y2="19.25" gradientTransform="translate(0 26) scale(1 -1)" gradientUnits="userSpaceOnUse">
      <stop offset="0" stop-color="#fff"></stop>
      <stop offset=".89" stop-color="#30c4ff"></stop>
    </linearGradient>
    <linearGradient id="linear-gradient3" x1="12.96" y1="12.99" x2="21.41" y2="11.41" gradientTransform="translate(0 26) scale(1 -1)" gradientUnits="userSpaceOnUse">
      <stop offset=".03" stop-color="#7b32dc"></stop>
      <stop offset=".98" stop-color="#32bdff"></stop>
    </linearGradient>
  </defs>
  <path class="st1" d="M12.75,19.14l9.97-9.97c.41-.41.41-1.09,0-1.51l-2.62-2.62c-.33-.32-.76-.5-1.22-.5H5.11c-.46,0-.9.18-1.22.5l-2.62,2.62c-.41.41-.41,1.09,0,1.51l9.97,9.97c.41.41,1.09.41,1.51,0Z"></path>
  <path class="st2" d="M3.82,5.12c.36-.36.88-.51,1.38-.41l17.31,3.52c.34.07.51.44.38.73.24-.41.18-.94-.17-1.29l-2.62-2.62c-.33-.33-.76-.5-1.22-.5H5.11c-.46,0-.89.18-1.22.5,0,0-.07.07-.07.07Z"></path>
  <path class="st3" d="M19.22,5.3l-1.02,2.05,4.3.87c.34.07.51.44.38.73.24-.41.18-.94-.17-1.29l-2.62-2.62c-.33-.33-.76-.5-1.22-.5h-.13c.39,0,.65.41.47.76Z"></path>
  <path class="st0" d="M22.89,8.95c.13-.29-.03-.66-.38-.73l-4.3-.87-5.77,11.66c-.16.33-.53.46-.85.36.39.16.85.08,1.16-.23l9.97-9.97c.07-.07.12-.14.17-.22h0Z"></path>
</svg>