<?xml version="1.0" encoding="UTF-8"?>
<svg id="Layer_1" xmlns="http://www.w3.org/2000/svg" version="1.1" viewBox="0 0 1520 1519">
  
  <defs>
    
  </defs>
  <path class="st0" fill-rule="evenodd" d="M1340.5,0H179C80.14,0,0,80.14,0,179v1160.9c0,98.86,80.14,179,179,179h1161.5c98.86,0,179-80.14,179-179V179c0-98.86-80.14-179-179-179ZM414.5,426.5c0-6.8,5.4-12.2,12.1-12.2h382.1c6.7,0,12,5.5,12,12.2v46.4c0,6.7-5.4,12.2-12,12.2h-322.1v107c0,6.7-5.4,12.2-12,12.2h-48c-6.7,0-12.1-5.4-12.1-12.2v-165.6ZM1105.2,1092.5c0,6.7-5.4,12.1-12.1,12.1h-351.4c-6.7,0-12.1-5.4-12.1-12.1v-48.4c0-6.7,5.4-12.2,12.1-12.2h291.4v-110.3c0-6.7,5.4-12.2,12.1-12.2h47.9c6.7,0,12.1,5.5,12.1,12.2v170.9ZM1105.2,590.2c.1,6.7-5.3,12.2-12,12.3h-48c-6.7,0-12.1-5.5-12.1-12.2v-50.6l-511.2,492.3h105.2c6.6,0,12.1,5.4,12.1,12.2v48.3c0,6.8-5.5,12.2-12.1,12.2h-200.5c-6.7,0-12.1-5.4-12.1-12.2v-60.3L981,486.9h-57.4c-6.7,0-12.1-5.4-12.1-12.2v-48.2c0-6.8,5.4-12.2,12.1-12.2h0s169.5,0,169.5,0c6.7,0,12.1,5.4,12.1,12.2v163.7Z"></path>
</svg>